<mxfile host="65bd71144e">
    <diagram id="6K2aCtGG5v6xstUJsYja" name="Page-1">
        <mxGraphModel dx="110" dy="63" grid="1" gridSize="10" guides="1" tooltips="1" connect="1" arrows="1" fold="1" page="1" pageScale="1" pageWidth="827" pageHeight="1169" math="0" shadow="0">
            <root>
                <mxCell id="0"/>
                <mxCell id="1" parent="0"/>
                <mxCell id="6" style="edgeStyle=none;shape=connector;rounded=0;html=1;exitX=1;exitY=0.5;exitDx=0;exitDy=0;exitPerimeter=0;entryX=0;entryY=0.57;entryDx=0;entryDy=0;entryPerimeter=0;labelBackgroundColor=default;strokeColor=default;fontFamily=Helvetica;fontSize=11;fontColor=default;endArrow=none;endFill=0;" parent="1" source="2" target="4" edge="1">
                    <mxGeometry relative="1" as="geometry"/>
                </mxCell>
                <mxCell id="25" style="edgeStyle=none;html=1;exitX=0;exitY=0.5;exitDx=0;exitDy=0;exitPerimeter=0;entryX=0.7;entryY=1;entryDx=0;entryDy=0;entryPerimeter=0;rounded=0;endArrow=none;endFill=0;" parent="1" source="2" target="24" edge="1">
                    <mxGeometry relative="1" as="geometry"/>
                </mxCell>
                <mxCell id="2" value="" style="pointerEvents=1;verticalLabelPosition=bottom;shadow=0;dashed=0;align=center;html=1;verticalAlign=top;shape=mxgraph.electrical.resistors.resistor_2;rotation=90;" parent="1" vertex="1">
                    <mxGeometry x="359" y="213" width="100" height="20" as="geometry"/>
                </mxCell>
                <mxCell id="3" value="" style="pointerEvents=1;verticalLabelPosition=bottom;shadow=0;dashed=0;align=center;html=1;verticalAlign=top;shape=mxgraph.electrical.miscellaneous.batteryStack;rotation=-90;" parent="1" vertex="1">
                    <mxGeometry x="180" y="313" width="100" height="60" as="geometry"/>
                </mxCell>
                <mxCell id="7" style="edgeStyle=none;shape=connector;rounded=0;html=1;exitX=1;exitY=0.57;exitDx=0;exitDy=0;exitPerimeter=0;entryX=0;entryY=0.5;entryDx=0;entryDy=0;labelBackgroundColor=default;strokeColor=default;fontFamily=Helvetica;fontSize=11;fontColor=default;endArrow=none;endFill=0;startArrow=none;" parent="1" source="16" target="3" edge="1">
                    <mxGeometry relative="1" as="geometry"/>
                </mxCell>
                <mxCell id="4" value="" style="verticalLabelPosition=bottom;shadow=0;dashed=0;align=center;html=1;verticalAlign=top;shape=mxgraph.electrical.opto_electronics.led_2;pointerEvents=1;rotation=90;" parent="1" vertex="1">
                    <mxGeometry x="364" y="308" width="100" height="70" as="geometry"/>
                </mxCell>
                <mxCell id="8" value="&lt;div style=&quot;text-align: left;&quot;&gt;&lt;span style=&quot;background-color: initial;&quot;&gt;TEJ3M Unit#4-06&lt;/span&gt;&lt;/div&gt;&lt;div style=&quot;text-align: left;&quot;&gt;&lt;span style=&quot;background-color: initial;&quot;&gt;Alex James&lt;/span&gt;&lt;/div&gt;&lt;div style=&quot;text-align: left;&quot;&gt;Nov. 2023&lt;/div&gt;&lt;div style=&quot;text-align: left;&quot;&gt;Single LED + Transistor&lt;/div&gt;" style="text;html=1;align=center;verticalAlign=middle;resizable=0;points=[];autosize=1;strokeColor=none;fillColor=none;fontSize=11;fontFamily=Helvetica;fontColor=default;" parent="1" vertex="1">
                    <mxGeometry x="95" y="93" width="140" height="70" as="geometry"/>
                </mxCell>
                <mxCell id="9" value="220&amp;nbsp;Ω" style="text;html=1;align=center;verticalAlign=middle;resizable=0;points=[];autosize=1;strokeColor=none;fillColor=none;fontSize=11;fontFamily=Helvetica;fontColor=default;" parent="1" vertex="1">
                    <mxGeometry x="415" y="209" width="50" height="30" as="geometry"/>
                </mxCell>
                <mxCell id="10" value="+5 V" style="text;html=1;align=center;verticalAlign=middle;resizable=0;points=[];autosize=1;strokeColor=none;fillColor=none;fontSize=11;fontFamily=Helvetica;fontColor=default;" parent="1" vertex="1">
                    <mxGeometry x="155" y="328" width="50" height="30" as="geometry"/>
                </mxCell>
                <mxCell id="11" value="LED" style="text;html=1;align=center;verticalAlign=middle;resizable=0;points=[];autosize=1;strokeColor=none;fillColor=none;fontSize=11;fontFamily=Helvetica;fontColor=default;" parent="1" vertex="1">
                    <mxGeometry x="440" y="328" width="40" height="30" as="geometry"/>
                </mxCell>
                <mxCell id="21" style="edgeStyle=none;rounded=0;html=1;exitX=1;exitY=0.88;exitDx=0;exitDy=0;endArrow=none;endFill=0;startArrow=none;" parent="1" edge="1">
                    <mxGeometry relative="1" as="geometry">
                        <Array as="points"/>
                        <mxPoint x="230.01549014116762" y="294.9792346208667" as="sourcePoint"/>
                        <mxPoint x="230" y="63" as="targetPoint"/>
                    </mxGeometry>
                </mxCell>
                <mxCell id="17" value="" style="edgeStyle=none;shape=connector;rounded=0;html=1;exitX=1;exitY=0.57;exitDx=0;exitDy=0;exitPerimeter=0;entryX=0;entryY=0.5;entryDx=0;entryDy=0;labelBackgroundColor=default;strokeColor=default;fontFamily=Helvetica;fontSize=11;fontColor=default;endArrow=none;endFill=0;" parent="1" source="4" target="16" edge="1">
                    <mxGeometry relative="1" as="geometry">
                        <mxPoint x="409.1" y="393" as="sourcePoint"/>
                        <mxPoint x="230" y="393" as="targetPoint"/>
                    </mxGeometry>
                </mxCell>
                <mxCell id="16" value="" style="ellipse;whiteSpace=wrap;html=1;aspect=fixed;strokeColor=#030303;fillColor=#000000;" parent="1" vertex="1">
                    <mxGeometry x="287" y="388" width="10" height="10" as="geometry"/>
                </mxCell>
                <mxCell id="20" value="A&amp;nbsp;| Output&lt;br&gt;-------------&lt;br&gt;0 | 0&lt;br&gt;1&amp;nbsp;| 1" style="text;html=1;align=left;verticalAlign=middle;resizable=0;points=[];autosize=1;strokeColor=none;fillColor=none;" parent="1" vertex="1">
                    <mxGeometry x="140" y="189" width="80" height="70" as="geometry"/>
                </mxCell>
                <mxCell id="22" value="A" style="text;html=1;align=center;verticalAlign=middle;resizable=0;points=[];autosize=1;strokeColor=none;fillColor=none;" parent="1" vertex="1">
                    <mxGeometry x="260" y="237" width="30" height="30" as="geometry"/>
                </mxCell>
                <mxCell id="23" value="Output" style="text;html=1;align=center;verticalAlign=middle;resizable=0;points=[];autosize=1;strokeColor=none;fillColor=none;" parent="1" vertex="1">
                    <mxGeometry x="417" y="296" width="60" height="30" as="geometry"/>
                </mxCell>
                <mxCell id="26" style="edgeStyle=none;shape=connector;rounded=0;html=1;exitX=0.7;exitY=0;exitDx=0;exitDy=0;exitPerimeter=0;labelBackgroundColor=default;strokeColor=default;fontFamily=Helvetica;fontSize=11;fontColor=default;endArrow=none;endFill=0;" parent="1" source="24" edge="1">
                    <mxGeometry relative="1" as="geometry">
                        <mxPoint x="230" y="63" as="targetPoint"/>
                    </mxGeometry>
                </mxCell>
                <mxCell id="32" style="edgeStyle=none;shape=connector;rounded=0;html=1;exitX=0;exitY=0.5;exitDx=0;exitDy=0;exitPerimeter=0;entryX=0;entryY=0.5;entryDx=0;entryDy=0;entryPerimeter=0;labelBackgroundColor=default;strokeColor=default;fontFamily=Helvetica;fontSize=11;fontColor=default;endArrow=none;endFill=0;" parent="1" edge="1">
                    <mxGeometry relative="1" as="geometry">
                        <mxPoint x="345.0454545454546" y="113" as="sourcePoint"/>
                        <mxPoint x="331" y="133" as="targetPoint"/>
                        <Array as="points">
                            <mxPoint x="330" y="113"/>
                        </Array>
                    </mxGeometry>
                </mxCell>
                <mxCell id="24" value="" style="verticalLabelPosition=bottom;shadow=0;dashed=0;align=center;html=1;verticalAlign=top;shape=mxgraph.electrical.transistors.npn_transistor_1;" parent="1" vertex="1">
                    <mxGeometry x="343" y="63" width="95" height="100" as="geometry"/>
                </mxCell>
                <mxCell id="27" value="" style="ellipse;whiteSpace=wrap;html=1;aspect=fixed;strokeColor=#030303;fillColor=#000000;" parent="1" vertex="1">
                    <mxGeometry x="225" y="273" width="10" height="10" as="geometry"/>
                </mxCell>
                <mxCell id="41" style="edgeStyle=none;shape=connector;rounded=0;html=1;exitX=1;exitY=0.5;exitDx=0;exitDy=0;exitPerimeter=0;entryX=1;entryY=0.12;entryDx=0;entryDy=0;labelBackgroundColor=default;strokeColor=default;fontFamily=Helvetica;fontSize=11;fontColor=default;endArrow=none;endFill=0;" edge="1" parent="1" source="29" target="38">
                    <mxGeometry relative="1" as="geometry">
                        <Array as="points">
                            <mxPoint x="330" y="270"/>
                        </Array>
                    </mxGeometry>
                </mxCell>
                <mxCell id="29" value="" style="pointerEvents=1;verticalLabelPosition=bottom;shadow=0;dashed=0;align=center;html=1;verticalAlign=top;shape=mxgraph.electrical.resistors.resistor_2;rotation=90;" parent="1" vertex="1">
                    <mxGeometry x="281" y="173" width="100" height="20" as="geometry"/>
                </mxCell>
                <mxCell id="31" value="4.7 kΩ" style="text;html=1;align=center;verticalAlign=middle;resizable=0;points=[];autosize=1;strokeColor=none;fillColor=none;fontSize=11;fontFamily=Helvetica;fontColor=default;" parent="1" vertex="1">
                    <mxGeometry x="256" y="172" width="60" height="30" as="geometry"/>
                </mxCell>
                <mxCell id="40" style="edgeStyle=none;shape=connector;rounded=0;html=1;exitX=1;exitY=0.88;exitDx=0;exitDy=0;entryX=0.5;entryY=0;entryDx=0;entryDy=0;labelBackgroundColor=default;strokeColor=default;fontFamily=Helvetica;fontSize=11;fontColor=default;endArrow=none;endFill=0;" edge="1" parent="1" source="38" target="16">
                    <mxGeometry relative="1" as="geometry"/>
                </mxCell>
                <mxCell id="38" value="" style="shape=mxgraph.electrical.electro-mechanical.twoWaySwitch;aspect=fixed;elSwitchState=2;rotation=0;flipV=1;flipH=0;" vertex="1" parent="1">
                    <mxGeometry x="235" y="268" width="57.7" height="20" as="geometry"/>
                </mxCell>
            </root>
        </mxGraphModel>
    </diagram>
</mxfile>